Coordinates
version=1
nRows=24
nColumns=19
inDegrees=yes

Units are S.I. units (second, meters, Newtons, ...)
If the header above contains a line with 'inDegrees', this indicates whether rotational values are in degrees (yes) or radians (no).

endheader
time	pelvis_tilt	pelvis_list	pelvis_rotation	pelvis_tx	pelvis_ty	pelvis_tz	hip_flexion_r	hip_adduction_r	hip_rotation_r	knee_angle_r	knee_angle_r_beta	ankle_angle_r	hip_flexion_l	hip_adduction_l	hip_rotation_l	knee_angle_l	knee_angle_l_beta	ankle_angle_l
     16.74666667	     -4.67403914	      6.94641475	      1.82078493	      2.42503434	      1.04653835	      1.01627267	     -9.65226430	     -6.03917524	     -2.81685991	     59.58273560	      1.03991491	    -16.77254983	     28.18463354	      9.35564653	    -14.13428180	     20.26344964	      0.35366391	     -2.56327467
     16.75333333	     -3.95859429	      7.41491255	      2.13030403	      2.42400078	      1.04221306	      1.01653049	     -9.07216123	     -6.66692784	     -2.99363551	     63.03375195	      1.10014651	    -16.37304914	     27.50670996	     10.00726150	    -13.52380308	     22.37924144	      0.39059145	     -1.30021951
     16.76000000	     -4.37727030	      7.55807469	      2.54725781	      2.42251217	      1.03615219	      1.01659755	     -7.02521862	     -7.04612007	     -3.04146532	     66.76306820	      1.16523536	    -15.91089653	     28.24223405	     10.29799883	    -12.99439858	     25.07626539	      0.43766340	      0.03698957
     16.76666667	     -4.29591391	      7.80865262	      2.83668556	      2.42099115	      1.03042952	      1.01677600	     -5.50021222	     -7.57409835	     -3.03930642	     70.34248533	      1.22770797	    -15.30049873	     28.34101139	     10.67933940	    -12.55312277	     27.75131223	      0.48435177	      1.80417419
     16.77333333	     -3.62006037	      8.23774362	      3.04384474	      2.41948558	      1.02528641	      1.01704506	     -4.63441428	     -8.35318069	     -3.11644388	     73.72802473	      1.28679678	    -14.57589991	     27.64932431	     11.23925042	    -12.19136979	     30.27353710	      0.52837290	      3.92747768
     16.78000000	     -4.21093673	      8.30660009	      3.21793415	      2.41754258	      1.01858344	      1.01737035	     -2.10629648	     -8.74752269	     -2.71801728	     77.32701740	      1.34961105	    -13.72483647	     28.43251686	     11.37330015	    -11.96852087	     33.06374306	      0.57707118	      6.08927599
     16.78666667	     -4.19581605	      8.49966059	      3.32088687	      2.41561410	      1.01274603	      1.01776119	     -0.24564036	     -9.32144993	     -2.41191415	     80.66546839	      1.40787802	    -12.81970099	     28.37291256	     11.63850953	    -11.75719182	     35.57057951	      0.62082373	      8.48761717
     16.79333333	     -4.14651275	      8.70222670	      3.37871141	      2.41352570	      1.00718699	      1.01821754	      1.65487414	     -9.89768937	     -1.99436907	     83.85721303	      1.46358447	    -11.82406374	     28.16334257	     11.89644100	    -11.58771664	     37.89114042	      0.66132516	     10.90817309
     16.80000000	     -4.14396216	      8.89790686	      3.40434907	      2.41138047	      1.00200148	      1.01867139	      3.69297561	    -10.48471567	     -1.49983557	     86.88400944	      1.51641203	    -10.82488032	     27.85122444	     12.14494141	    -11.42542580	     39.94336766	      0.69714328	     13.29370647
     16.80666667	     -4.10195462	      9.08372981	      3.40509751	      2.40915712	      0.99735179	      1.01914954	      5.75201204	    -11.04979344	     -0.93703790	     89.70417247	      1.56563316	     -9.79888306	     27.35069918	     12.38569159	    -11.21999393	     41.73399629	      0.72839565	     15.59056026
     16.81333333	     -4.02078621	      9.29443265	      3.37125095	      2.40695273	      0.99334267	      1.01962269	      7.82858219	    -11.62589476	     -0.29240322	     92.29021249	      1.61076808	     -8.76130698	     26.62110511	     12.65541761	    -10.98357581	     43.17373170	      0.75352377	     17.72732847
     16.82000000	     -3.53843851	      9.39737483	      3.44054007	      2.40487573	      0.99052355	      1.01994159	      9.41055577	    -12.08550467	      0.13787482	     94.50041182	      1.64934333	     -7.74397519	     25.24225340	     12.87656555	    -10.48915931	     44.28675028	      0.77294961	     19.74546011
     16.82666667	     -3.83438779	      9.57882023	      3.29071423	      2.40266515	      0.98742341	      1.02041957	     12.08868364	    -12.55059800	      1.08697809	     96.66342183	      1.68709498	     -6.76221142	     24.59630968	     13.08537415	    -10.29896937	     45.07850681	      0.78676837	     21.34224944
     16.83333333	     -3.79081667	      9.61243725	      3.26264192	      2.40066299	      0.98548155	      1.02070058	     14.30915959	    -12.83905606	      1.78663242	     98.41892729	      1.71773433	     -5.80358792	     23.36192182	     13.20525212	     -9.85019135	     45.54335677	      0.79488153	     22.80683447
     16.84000000	     -3.76977688	      9.56995065	      3.23422773	      2.39883780	      0.98425391	      1.02087987	     16.54557807	    -13.00334474	      2.47125015	     99.85895179	      1.74286750	     -4.86497968	     21.96297766	     13.25562099	     -9.34499591	     45.67365505	      0.79715566	     24.02492290
     16.84666667	     -3.65041414	      9.37257625	      3.30687840	      2.39722554	      0.98390282	      1.02087367	     18.58233317	    -12.97239726	      2.96144189	    100.93108538	      1.76157976	     -3.92106155	     20.26269336	     13.18175309	     -8.66073575	     45.49841821	      0.79409720	     25.06659960
     16.85333333	     -3.63619971	      9.08861991	      3.37137149	      2.39584354	      0.98414299	      1.02077937	     20.69315331	    -12.82177592	      3.40532534	    101.68753276	      1.77478225	     -3.09284195	     18.52026075	     13.01840450	     -7.93715289	     45.02572379	      0.78584713	     25.73104477
     16.86000000	     -3.74141901	      8.72306822	      3.45981925	      2.39471277	      0.98491394	      1.02051482	     22.86432248	    -12.58092928	      3.74642455	    102.12347234	      1.78239084	     -2.29046910	     16.75708585	     12.75512862	     -7.23645490	     44.28334993	      0.77289026	     26.14670513
     16.86666667	     -3.98459589	      8.37790178	      3.49700234	      2.39377105	      0.98599155	      1.02028685	     25.14014326	    -12.30638881	      4.10864701	    102.29949029	      1.78546293	     -1.50138787	     15.03973964	     12.48477249	     -6.63802524	     43.31348589	      0.75596294	     26.38763746
     16.87333333	     -4.33844344	      8.03287798	      3.46374906	      2.39316157	      0.98750148	      1.02005660	     27.45997513	    -11.99546650	      4.45755382	    102.17496608	      1.78328957	     -0.79821514	     13.32362637	     12.20242660	     -6.10807462	     42.08613692	      0.73454166	     26.30397970
     16.88000000	     -4.78624681	      7.48086058	      3.67862788	      2.39286210	      0.98951222	      1.01959788	     29.65741096	    -11.50960250	      4.42826800	    101.69963670	      1.77499351	     -0.16897454	     11.61991356	     11.69880250	     -5.43769318	     40.72667569	      0.71081458	     25.87984340
     16.88666667	     -5.28340447	      6.89011728	      3.86895178	      2.39285932	      0.99194347	      1.01914031	     31.78198386	    -10.98060854	      4.30529771	    100.92737099	      1.76151493	      0.39649876	      9.90649144	     11.16281427	     -4.70169129	     39.19283812	      0.68404407	     25.14282977
     16.89333333	     -5.02760074	      6.18952426	      4.19647605	      2.39342624	      0.99581042	      1.01839981	     32.76585874	    -10.48819365	      3.71363525	     99.72718757	      1.74056778	      0.95945792	      7.23134300	     10.45886064	     -3.76364472	     37.36197772	      0.65208953	     24.03538895
     16.90000000	     -5.72534520	      5.51985864	      4.44045814	      2.39396795	      0.99877117	      1.01793423	     34.82669633	     -9.92344525	      3.34495721	     98.42621133	      1.71786146	      1.38101093	      5.70325226	      9.77367276	     -3.08763022	     35.62195027	      0.62172032	     22.51860819
